<svg width="500" height="500" viewBox="0 0 500 500" fill="none" xmlns="http://www.w3.org/2000/svg">
<rect width="500" height="500" rx="20" fill="#080625"/>
<path d="M211 432.853H135C126.163 432.853 120.244 425.798 121.778 417.096C123.313 408.393 131.72 401.339 140.557 401.339C149.393 401.339 157.8 394.284 159.335 385.582L190.071 211.271C191.605 202.568 185.686 195.514 176.849 195.514C168.012 195.514 162.093 188.459 163.627 179.757C165.162 171.055 173.569 164 182.406 164H360.406C371.451 164 378.851 172.818 376.933 183.696L374.502 197.483L371.376 215.21C369.842 223.912 361.434 230.967 352.598 230.967C343.761 230.967 337.842 223.912 339.376 215.21L339.723 213.24C341.45 203.45 334.79 195.514 324.849 195.514H247.849C236.803 195.514 226.294 204.332 224.376 215.21L217.43 254.602C215.512 265.48 222.911 274.298 233.957 274.298H280.457C287.913 274.298 295.007 268.346 296.301 261.004C297.596 253.661 304.69 247.709 312.146 247.709H314.646C323.482 247.709 329.402 254.763 327.867 263.466L318.664 315.66C317.129 324.363 308.722 331.417 299.886 331.417H296.867C289.697 331.417 284.895 325.694 286.14 318.634C287.385 311.573 282.582 305.85 275.413 305.85H228.394C217.348 305.85 206.839 314.668 204.921 325.546L195.03 381.643C193.111 392.52 200.511 401.339 211.557 401.339H216.557C225.393 401.339 231.313 408.393 229.778 417.096C228.244 425.798 219.836 432.853 211 432.853Z" fill="white"/>
<circle cx="279" cy="92" r="48" fill="white"/>
</svg>
