<?xml version="1.0" standalone="no"?>
<!DOCTYPE svg PUBLIC "-//W3C//DTD SVG 20010904//EN"
 "http://www.w3.org/TR/2001/REC-SVG-20010904/DTD/svg10.dtd">
<svg version="1.0" xmlns="http://www.w3.org/2000/svg"
 width="1000.000000pt" height="1000.000000pt" viewBox="0 0 1000.000000 1000.000000"
 preserveAspectRatio="xMidYMid meet">
<metadata>
Created by potrace 1.14, written by Peter Selinger 2001-2017
</metadata>
<g transform="translate(0.000000,1000.000000) scale(0.100000,-0.100000)"
fill="#000000" stroke="none">
<path d="M300 9986 c-118 -32 -202 -103 -257 -214 l-38 -76 -3 -4660 c-1
-3056 1 -4679 8 -4715 22 -120 105 -224 225 -282 l70 -34 4682 -2 4682 -3 58
21 c32 12 65 28 74 35 8 8 19 14 23 14 13 0 78 65 106 106 16 22 38 67 49 100
l20 59 -2 4680 -2 4680 -25 59 c-16 38 -45 79 -81 115 -68 68 -71 71 -139 101
l-55 25 -4675 2 c-3698 1 -4684 -1 -4720 -11z"/>
</g>
</svg>
